<mxfile host="app.diagrams.net" modified="2024-03-10T00:44:27.972Z" agent="Mozilla/5.0 (X11; Linux x86_64) AppleWebKit/537.36 (KHTML, like Gecko) Chrome/122.0.0.0 Safari/537.36" etag="svarD--AOpLmALGoDKSJ" version="24.0.4" type="device">
  <diagram name="Page-1" id="q292WNFpsGVUspPvAuap">
    <mxGraphModel dx="2284" dy="754" grid="1" gridSize="10" guides="1" tooltips="1" connect="1" arrows="1" fold="1" page="1" pageScale="1" pageWidth="850" pageHeight="1100" math="0" shadow="0">
      <root>
        <mxCell id="0" />
        <mxCell id="1" parent="0" />
        <mxCell id="S25aGv_purP_b8vN17h_-1" value="veiculo" style="rounded=0;whiteSpace=wrap;html=1;" vertex="1" parent="1">
          <mxGeometry x="-720" y="260" width="70" height="20" as="geometry" />
        </mxCell>
        <mxCell id="S25aGv_purP_b8vN17h_-48" style="edgeStyle=orthogonalEdgeStyle;rounded=0;orthogonalLoop=1;jettySize=auto;html=1;exitX=0.5;exitY=0;exitDx=0;exitDy=0;entryX=0.5;entryY=1;entryDx=0;entryDy=0;" edge="1" parent="1" source="S25aGv_purP_b8vN17h_-22" target="S25aGv_purP_b8vN17h_-3">
          <mxGeometry relative="1" as="geometry">
            <Array as="points">
              <mxPoint x="-515" y="340" />
              <mxPoint x="-685" y="340" />
            </Array>
          </mxGeometry>
        </mxCell>
        <mxCell id="S25aGv_purP_b8vN17h_-3" value="matricula" style="rounded=0;whiteSpace=wrap;html=1;fontStyle=4" vertex="1" parent="1">
          <mxGeometry x="-720" y="280" width="70" height="40" as="geometry" />
        </mxCell>
        <mxCell id="S25aGv_purP_b8vN17h_-4" value="marca" style="rounded=0;whiteSpace=wrap;html=1;" vertex="1" parent="1">
          <mxGeometry x="-650" y="280" width="70" height="40" as="geometry" />
        </mxCell>
        <mxCell id="S25aGv_purP_b8vN17h_-5" value="ano" style="rounded=0;whiteSpace=wrap;html=1;" vertex="1" parent="1">
          <mxGeometry x="-580" y="280" width="70" height="40" as="geometry" />
        </mxCell>
        <mxCell id="S25aGv_purP_b8vN17h_-6" value="tipo_veÃ­culo-codigo" style="rounded=0;whiteSpace=wrap;html=1;" vertex="1" parent="1">
          <mxGeometry x="-510" y="280" width="110" height="40" as="geometry" />
        </mxCell>
        <mxCell id="S25aGv_purP_b8vN17h_-13" value="tipo_veiculo" style="rounded=0;whiteSpace=wrap;html=1;" vertex="1" parent="1">
          <mxGeometry x="-360" y="20" width="80" height="20" as="geometry" />
        </mxCell>
        <mxCell id="S25aGv_purP_b8vN17h_-60" style="edgeStyle=orthogonalEdgeStyle;rounded=0;orthogonalLoop=1;jettySize=auto;html=1;exitX=0.5;exitY=1;exitDx=0;exitDy=0;entryX=0.5;entryY=1;entryDx=0;entryDy=0;" edge="1" parent="1" source="S25aGv_purP_b8vN17h_-6" target="S25aGv_purP_b8vN17h_-14">
          <mxGeometry relative="1" as="geometry" />
        </mxCell>
        <mxCell id="S25aGv_purP_b8vN17h_-63" style="edgeStyle=orthogonalEdgeStyle;rounded=0;orthogonalLoop=1;jettySize=auto;html=1;exitX=0.5;exitY=1;exitDx=0;exitDy=0;" edge="1" parent="1" source="S25aGv_purP_b8vN17h_-31" target="S25aGv_purP_b8vN17h_-14">
          <mxGeometry relative="1" as="geometry">
            <Array as="points">
              <mxPoint x="-540" y="100" />
              <mxPoint x="-325" y="100" />
            </Array>
          </mxGeometry>
        </mxCell>
        <mxCell id="S25aGv_purP_b8vN17h_-64" style="edgeStyle=orthogonalEdgeStyle;rounded=0;orthogonalLoop=1;jettySize=auto;html=1;exitX=0.5;exitY=1;exitDx=0;exitDy=0;" edge="1" parent="1" source="S25aGv_purP_b8vN17h_-32" target="S25aGv_purP_b8vN17h_-14">
          <mxGeometry relative="1" as="geometry">
            <Array as="points">
              <mxPoint x="-460" y="100" />
              <mxPoint x="-325" y="100" />
            </Array>
          </mxGeometry>
        </mxCell>
        <mxCell id="S25aGv_purP_b8vN17h_-65" style="edgeStyle=orthogonalEdgeStyle;rounded=0;orthogonalLoop=1;jettySize=auto;html=1;exitX=0.5;exitY=1;exitDx=0;exitDy=0;entryX=0.5;entryY=1;entryDx=0;entryDy=0;" edge="1" parent="1" source="S25aGv_purP_b8vN17h_-47" target="S25aGv_purP_b8vN17h_-14">
          <mxGeometry relative="1" as="geometry" />
        </mxCell>
        <mxCell id="S25aGv_purP_b8vN17h_-67" style="edgeStyle=orthogonalEdgeStyle;rounded=0;orthogonalLoop=1;jettySize=auto;html=1;exitX=0.5;exitY=1;exitDx=0;exitDy=0;" edge="1" parent="1" source="S25aGv_purP_b8vN17h_-41" target="S25aGv_purP_b8vN17h_-14">
          <mxGeometry relative="1" as="geometry">
            <Array as="points">
              <mxPoint x="-400" y="220" />
              <mxPoint x="-325" y="220" />
            </Array>
          </mxGeometry>
        </mxCell>
        <mxCell id="S25aGv_purP_b8vN17h_-14" value="codigo" style="rounded=0;whiteSpace=wrap;html=1;fontStyle=4" vertex="1" parent="1">
          <mxGeometry x="-360" y="40" width="70" height="40" as="geometry" />
        </mxCell>
        <mxCell id="S25aGv_purP_b8vN17h_-15" value="arcondicionado" style="rounded=0;whiteSpace=wrap;html=1;" vertex="1" parent="1">
          <mxGeometry x="-290" y="40" width="100" height="40" as="geometry" />
        </mxCell>
        <mxCell id="S25aGv_purP_b8vN17h_-16" value="designacao" style="rounded=0;whiteSpace=wrap;html=1;" vertex="1" parent="1">
          <mxGeometry x="-190" y="40" width="80" height="40" as="geometry" />
        </mxCell>
        <mxCell id="S25aGv_purP_b8vN17h_-18" value="aluguer" style="rounded=0;whiteSpace=wrap;html=1;" vertex="1" parent="1">
          <mxGeometry x="-760" y="460" width="70" height="20" as="geometry" />
        </mxCell>
        <mxCell id="S25aGv_purP_b8vN17h_-19" value="numero" style="rounded=0;whiteSpace=wrap;html=1;fontStyle=4" vertex="1" parent="1">
          <mxGeometry x="-760" y="480" width="70" height="40" as="geometry" />
        </mxCell>
        <mxCell id="S25aGv_purP_b8vN17h_-20" value="data" style="rounded=0;whiteSpace=wrap;html=1;" vertex="1" parent="1">
          <mxGeometry x="-690" y="480" width="50" height="40" as="geometry" />
        </mxCell>
        <mxCell id="S25aGv_purP_b8vN17h_-21" value="duracao" style="rounded=0;whiteSpace=wrap;html=1;" vertex="1" parent="1">
          <mxGeometry x="-640" y="480" width="70" height="40" as="geometry" />
        </mxCell>
        <mxCell id="S25aGv_purP_b8vN17h_-22" value="veiculo-matricula" style="rounded=0;whiteSpace=wrap;html=1;" vertex="1" parent="1">
          <mxGeometry x="-570" y="480" width="110" height="40" as="geometry" />
        </mxCell>
        <mxCell id="S25aGv_purP_b8vN17h_-23" value="cliente-nif" style="rounded=0;whiteSpace=wrap;html=1;" vertex="1" parent="1">
          <mxGeometry x="-460" y="480" width="80" height="40" as="geometry" />
        </mxCell>
        <mxCell id="S25aGv_purP_b8vN17h_-24" value="balcao-numero" style="rounded=0;whiteSpace=wrap;html=1;" vertex="1" parent="1">
          <mxGeometry x="-380" y="480" width="100" height="40" as="geometry" />
        </mxCell>
        <mxCell id="S25aGv_purP_b8vN17h_-25" value="balcao" style="rounded=0;whiteSpace=wrap;html=1;" vertex="1" parent="1">
          <mxGeometry x="-230" y="460" width="70" height="20" as="geometry" />
        </mxCell>
        <mxCell id="S25aGv_purP_b8vN17h_-55" style="edgeStyle=orthogonalEdgeStyle;rounded=0;orthogonalLoop=1;jettySize=auto;html=1;exitX=0.5;exitY=1;exitDx=0;exitDy=0;entryX=0.5;entryY=1;entryDx=0;entryDy=0;" edge="1" parent="1" source="S25aGv_purP_b8vN17h_-24" target="S25aGv_purP_b8vN17h_-26">
          <mxGeometry relative="1" as="geometry">
            <Array as="points">
              <mxPoint x="-330" y="560" />
              <mxPoint x="-195" y="560" />
            </Array>
          </mxGeometry>
        </mxCell>
        <mxCell id="S25aGv_purP_b8vN17h_-26" value="numero" style="rounded=0;whiteSpace=wrap;html=1;fontStyle=4" vertex="1" parent="1">
          <mxGeometry x="-230" y="480" width="70" height="40" as="geometry" />
        </mxCell>
        <mxCell id="S25aGv_purP_b8vN17h_-27" value="endereco" style="rounded=0;whiteSpace=wrap;html=1;" vertex="1" parent="1">
          <mxGeometry x="-160" y="480" width="70" height="40" as="geometry" />
        </mxCell>
        <mxCell id="S25aGv_purP_b8vN17h_-28" value="nome" style="rounded=0;whiteSpace=wrap;html=1;" vertex="1" parent="1">
          <mxGeometry x="-90" y="480" width="60" height="40" as="geometry" />
        </mxCell>
        <mxCell id="S25aGv_purP_b8vN17h_-30" value="similaridade" style="rounded=0;whiteSpace=wrap;html=1;" vertex="1" parent="1">
          <mxGeometry x="-580" y="20" width="80" height="20" as="geometry" />
        </mxCell>
        <mxCell id="S25aGv_purP_b8vN17h_-31" value="TVcodigo1" style="rounded=0;whiteSpace=wrap;html=1;fontStyle=4" vertex="1" parent="1">
          <mxGeometry x="-580" y="40" width="80" height="40" as="geometry" />
        </mxCell>
        <mxCell id="S25aGv_purP_b8vN17h_-32" value="TVcodigo2" style="rounded=0;whiteSpace=wrap;html=1;fontStyle=4" vertex="1" parent="1">
          <mxGeometry x="-500" y="40" width="80" height="40" as="geometry" />
        </mxCell>
        <mxCell id="S25aGv_purP_b8vN17h_-35" value="ligeiro" style="rounded=0;whiteSpace=wrap;html=1;" vertex="1" parent="1">
          <mxGeometry x="-750" y="140" width="60" height="20" as="geometry" />
        </mxCell>
        <mxCell id="S25aGv_purP_b8vN17h_-36" value="id" style="rounded=0;whiteSpace=wrap;html=1;fontStyle=4" vertex="1" parent="1">
          <mxGeometry x="-750" y="160" width="60" height="40" as="geometry" />
        </mxCell>
        <mxCell id="S25aGv_purP_b8vN17h_-37" value="numLugares" style="rounded=0;whiteSpace=wrap;html=1;" vertex="1" parent="1">
          <mxGeometry x="-690" y="160" width="90" height="40" as="geometry" />
        </mxCell>
        <mxCell id="S25aGv_purP_b8vN17h_-38" value="portas" style="rounded=0;whiteSpace=wrap;html=1;" vertex="1" parent="1">
          <mxGeometry x="-600" y="160" width="70" height="40" as="geometry" />
        </mxCell>
        <mxCell id="S25aGv_purP_b8vN17h_-39" value="combustivel" style="rounded=0;whiteSpace=wrap;html=1;" vertex="1" parent="1">
          <mxGeometry x="-530" y="160" width="90" height="40" as="geometry" />
        </mxCell>
        <mxCell id="S25aGv_purP_b8vN17h_-41" value="TVcodigo" style="rounded=0;whiteSpace=wrap;html=1;" vertex="1" parent="1">
          <mxGeometry x="-440" y="160" width="80" height="40" as="geometry" />
        </mxCell>
        <mxCell id="S25aGv_purP_b8vN17h_-42" value="pesado" style="rounded=0;whiteSpace=wrap;html=1;" vertex="1" parent="1">
          <mxGeometry x="-280" y="140" width="60" height="20" as="geometry" />
        </mxCell>
        <mxCell id="S25aGv_purP_b8vN17h_-43" value="id" style="rounded=0;whiteSpace=wrap;html=1;fontStyle=4" vertex="1" parent="1">
          <mxGeometry x="-280" y="160" width="60" height="40" as="geometry" />
        </mxCell>
        <mxCell id="S25aGv_purP_b8vN17h_-44" value="peso" style="rounded=0;whiteSpace=wrap;html=1;" vertex="1" parent="1">
          <mxGeometry x="-220" y="160" width="60" height="40" as="geometry" />
        </mxCell>
        <mxCell id="S25aGv_purP_b8vN17h_-45" value="passageiros" style="rounded=0;whiteSpace=wrap;html=1;" vertex="1" parent="1">
          <mxGeometry x="-160" y="160" width="80" height="40" as="geometry" />
        </mxCell>
        <mxCell id="S25aGv_purP_b8vN17h_-47" value="TVcodigo" style="rounded=0;whiteSpace=wrap;html=1;" vertex="1" parent="1">
          <mxGeometry x="-80" y="160" width="80" height="40" as="geometry" />
        </mxCell>
        <mxCell id="S25aGv_purP_b8vN17h_-49" value="cliente" style="rounded=0;whiteSpace=wrap;html=1;" vertex="1" parent="1">
          <mxGeometry x="-300" y="340" width="70" height="20" as="geometry" />
        </mxCell>
        <mxCell id="S25aGv_purP_b8vN17h_-59" style="edgeStyle=orthogonalEdgeStyle;rounded=0;orthogonalLoop=1;jettySize=auto;html=1;exitX=0.5;exitY=0;exitDx=0;exitDy=0;entryX=0.5;entryY=1;entryDx=0;entryDy=0;" edge="1" parent="1" source="S25aGv_purP_b8vN17h_-23" target="S25aGv_purP_b8vN17h_-50">
          <mxGeometry relative="1" as="geometry" />
        </mxCell>
        <mxCell id="S25aGv_purP_b8vN17h_-50" value="nif" style="rounded=0;whiteSpace=wrap;html=1;fontStyle=4" vertex="1" parent="1">
          <mxGeometry x="-300" y="360" width="70" height="40" as="geometry" />
        </mxCell>
        <mxCell id="S25aGv_purP_b8vN17h_-51" value="num_carta" style="rounded=0;whiteSpace=wrap;html=1;" vertex="1" parent="1">
          <mxGeometry x="-230" y="360" width="80" height="40" as="geometry" />
        </mxCell>
        <mxCell id="S25aGv_purP_b8vN17h_-52" value="endereco" style="rounded=0;whiteSpace=wrap;html=1;" vertex="1" parent="1">
          <mxGeometry x="-150" y="360" width="80" height="40" as="geometry" />
        </mxCell>
        <mxCell id="S25aGv_purP_b8vN17h_-53" value="nome" style="rounded=0;whiteSpace=wrap;html=1;" vertex="1" parent="1">
          <mxGeometry x="-70" y="360" width="60" height="40" as="geometry" />
        </mxCell>
      </root>
    </mxGraphModel>
  </diagram>
</mxfile>
